<svg xmlns="http://www.w3.org/2000/svg" version="1.1" xmlns:xlink="http://www.w3.org/1999/xlink" xmlns:svgjs="http://svgjs.dev/svgjs" width="2000" height="2421" viewBox="0 0 2000 2421"><g transform="matrix(1,0,0,1,0.684750085005362,0.980161943319672)"><svg viewBox="0 0 204 247" data-background-color="#000000" preserveAspectRatio="xMidYMid meet" height="2421" width="2000" xmlns="http://www.w3.org/2000/svg" xmlns:xlink="http://www.w3.org/1999/xlink"><g id="tight-bounds" transform="matrix(1,0,0,1,-0.06984450867054193,-0.09999999999999432)"><svg viewBox="0 0 204.13968901734108 247.2" height="247.2" width="204.13968901734108"><rect width="204.13968901734108" height="247.2" fill="url(#21d3a4d4-8095-4d0a-ab80-4bf5167bb55b)" mask="url(#68b42a7a-852c-4660-8eeb-13fd3ab71a07)" data-fill-palette-color="tertiary"></rect><g><svg viewBox="0 0 204.13968901734108 247.2" height="247.2" width="204.13968901734108"><g><svg viewBox="0 0 204.13968901734108 247.2" height="247.2" width="204.13968901734108"><g><svg viewBox="0 0 204.13968901734108 247.2" height="247.2" width="204.13968901734108"><g id="textblocktransform"><svg viewBox="0 0 204.13968901734108 247.2" height="247.2" width="204.13968901734108" id="textblock"><g><svg viewBox="0 0 204.13968901734108 247.2" height="247.2" width="204.13968901734108"><rect width="204.13968901734108" height="247.2" x="0" y="0" opacity="1" fill="url(#21d3a4d4-8095-4d0a-ab80-4bf5167bb55b)" data-fill-palette-color="tertiary"></rect><g transform="matrix(1,0,0,1,23.607599999999998,23.607599999999998)"><svg width="156.92448901734107" viewBox="-2.2 -34.6 27.15 34.6" height="199.9848" data-palette-color="#000000"><path d="M24.95 0L17.7 0 17.1-7.85 7.8-7.85 5.05 0-2.2 0 12-34.6 20.45-34.6 24.95 0ZM15.4-29.6L9.65-13.1 16.7-13.1 15.4-29.6Z" opacity="1" transform="matrix(1,0,0,1,0,0)" fill="#000000" class="wordmark-text-0" data-fill-palette-color="quaternary" id="text-0"></path></svg></g></svg></g></svg></g></svg></g></svg></g></svg></g><defs></defs><mask id="68b42a7a-852c-4660-8eeb-13fd3ab71a07"><g id="SvgjsG1683"><svg viewBox="0 0 204.13968901734108 247.2" height="247.2" width="204.13968901734108"><g><svg viewBox="0 0 204.13968901734108 247.2" height="247.2" width="204.13968901734108"><g><svg viewBox="0 0 204.13968901734108 247.2" height="247.2" width="204.13968901734108"><g><svg viewBox="0 0 204.13968901734108 247.2" height="247.2" width="204.13968901734108"><g id="SvgjsG1682"><svg viewBox="0 0 204.13968901734108 247.2" height="247.2" width="204.13968901734108" id="SvgjsSvg1681"><g><svg viewBox="0 0 204.13968901734108 247.2" height="247.2" width="204.13968901734108"><rect width="204.13968901734108" height="247.2" x="0" y="0" opacity="1" fill="white"></rect><g transform="matrix(1,0,0,1,23.607599999999998,23.607599999999998)"><svg width="156.92448901734107" viewBox="-2.2 -34.6 27.15 34.6" height="199.9848" data-palette-color="#000000"><path d="M24.95 0L17.7 0 17.1-7.85 7.8-7.85 5.05 0-2.2 0 12-34.6 20.45-34.6 24.95 0ZM15.4-29.6L9.65-13.1 16.7-13.1 15.4-29.6Z" opacity="1" transform="matrix(1,0,0,1,0,0)" fill="black" class="wordmark-text-0" id="SvgjsPath1680"></path></svg></g></svg></g></svg></g></svg></g></svg></g></svg></g><defs><mask></mask></defs></svg><rect width="204.13968901734108" height="247.2" fill="black" stroke="none" visibility="hidden"></rect></g></mask><linearGradient x1="0" x2="1" y1="0.5" y2="0.5" id="21d3a4d4-8095-4d0a-ab80-4bf5167bb55b"><stop stop-color="#ffa62e" offset="0"></stop><stop stop-color="#f71b3d" offset="1"></stop></linearGradient></svg><rect width="204.13968901734108" height="247.2" fill="none" stroke="none" visibility="hidden"></rect></g></svg></g></svg>